<svg xmlns="http://www.w3.org/2000/svg" viewBox="0 0 620 120" role="img" aria-labelledby="title desc">
  <title id="title">GraceMed</title>
  <desc id="desc">GraceMed logo</desc>
  <g fill="none" fill-rule="evenodd">
    <g transform="translate(18 14)" fill="#7FA89B">
      <path d="M52 50C35 31 19 24 0 26c2 21 18 37 48 42 1-6 2-12 4-18Z" opacity=".9"/>
      <path d="M66 48c7-25 4-44-12-48-16 17-19 37-7 60 6-5 12-9 19-12Z" opacity=".95"/>
      <path d="M76 68c31-5 48-21 51-42-20-2-37 6-54 26 2 5 3 10 3 16Z" opacity=".75"/>
    </g>
    <text x="170" y="78" fill="#0F2D52" font-family="Georgia, 'Times New Roman', serif" font-size="76" font-weight="700" letter-spacing="-3">GraceMed</text>
  </g>
</svg>
